<svg width="106" height="52" viewBox="0 0 106 52" fill="none" xmlns="http://www.w3.org/2000/svg">
<path d="M15.6052 21.22C14.3292 21.22 13.2585 21.0293 12.3932 20.648C11.5279 20.252 10.8605 19.746 10.3912 19.13C9.93654 18.4993 9.69454 17.832 9.66521 17.128C9.66521 17.0107 9.70921 16.908 9.79721 16.82C9.89988 16.7173 10.0172 16.666 10.1492 16.666H11.2712C11.4472 16.666 11.5792 16.71 11.6672 16.798C11.7552 16.886 11.8139 16.9887 11.8432 17.106C11.9165 17.458 12.0925 17.81 12.3712 18.162C12.6645 18.4993 13.0679 18.7853 13.5812 19.02C14.1092 19.24 14.7839 19.35 15.6052 19.35C16.8665 19.35 17.7905 19.13 18.3772 18.69C18.9785 18.2353 19.2792 17.634 19.2792 16.886C19.2792 16.3727 19.1179 15.962 18.7952 15.654C18.4872 15.3313 18.0105 15.0453 17.3652 14.796C16.7199 14.5467 15.8839 14.2753 14.8572 13.982C13.7865 13.674 12.8992 13.3367 12.1952 12.97C11.4912 12.6033 10.9632 12.1487 10.6112 11.606C10.2739 11.0633 10.1052 10.374 10.1052 9.538C10.1052 8.746 10.3179 8.042 10.7432 7.426C11.1685 6.79533 11.7772 6.29667 12.5692 5.93C13.3759 5.56333 14.3512 5.38 15.4952 5.38C16.4045 5.38 17.1965 5.50467 17.8712 5.754C18.5605 5.98867 19.1325 6.31133 19.5872 6.722C20.0419 7.118 20.3865 7.55067 20.6212 8.02C20.8559 8.47467 20.9805 8.922 20.9952 9.362C20.9952 9.46467 20.9585 9.56733 20.8852 9.67C20.8119 9.758 20.6945 9.802 20.5332 9.802H19.3672C19.2645 9.802 19.1545 9.77267 19.0372 9.714C18.9345 9.65533 18.8539 9.54533 18.7952 9.384C18.7072 8.78267 18.3699 8.27667 17.7832 7.866C17.1965 7.45533 16.4339 7.25 15.4952 7.25C14.5419 7.25 13.7645 7.43333 13.1632 7.8C12.5765 8.16667 12.2832 8.73867 12.2832 9.516C12.2832 10.0147 12.4225 10.4327 12.7012 10.77C12.9799 11.0927 13.4199 11.3787 14.0212 11.628C14.6225 11.8773 15.4072 12.1413 16.3752 12.42C17.5485 12.7427 18.5092 13.0873 19.2572 13.454C20.0052 13.806 20.5552 14.2533 20.9072 14.796C21.2739 15.324 21.4572 16.006 21.4572 16.842C21.4572 17.766 21.2152 18.558 20.7312 19.218C20.2472 19.8633 19.5652 20.362 18.6852 20.714C17.8199 21.0513 16.7932 21.22 15.6052 21.22ZM27.2448 21.22C26.5114 21.22 25.8441 21.0733 25.2428 20.78C24.6414 20.4867 24.1574 20.0907 23.7908 19.592C23.4241 19.0933 23.2408 18.5287 23.2408 17.898C23.2408 16.886 23.6514 16.0793 24.4728 15.478C25.2941 14.8767 26.3648 14.4807 27.6848 14.29L30.9628 13.828V13.19C30.9628 12.486 30.7574 11.936 30.3468 11.54C29.9508 11.144 29.2981 10.946 28.3888 10.946C27.7288 10.946 27.1934 11.078 26.7828 11.342C26.3868 11.606 26.1081 11.9433 25.9468 12.354C25.8588 12.574 25.7048 12.684 25.4848 12.684H24.4948C24.3334 12.684 24.2088 12.64 24.1208 12.552C24.0474 12.4493 24.0108 12.332 24.0108 12.2C24.0108 11.98 24.0914 11.7087 24.2528 11.386C24.4288 11.0633 24.6928 10.748 25.0448 10.44C25.3968 10.132 25.8441 9.87533 26.3868 9.67C26.9441 9.45 27.6188 9.34 28.4108 9.34C29.2908 9.34 30.0314 9.45733 30.6328 9.692C31.2341 9.912 31.7034 10.2127 32.0408 10.594C32.3928 10.9753 32.6421 11.408 32.7888 11.892C32.9501 12.376 33.0308 12.8673 33.0308 13.366V20.494C33.0308 20.6407 32.9794 20.7653 32.8768 20.868C32.7888 20.956 32.6714 21 32.5248 21H31.5128C31.3514 21 31.2268 20.956 31.1388 20.868C31.0508 20.7653 31.0068 20.6407 31.0068 20.494V19.548C30.8161 19.812 30.5594 20.076 30.2368 20.34C29.9141 20.5893 29.5108 20.802 29.0268 20.978C28.5428 21.1393 27.9488 21.22 27.2448 21.22ZM27.7068 19.57C28.3081 19.57 28.8581 19.4453 29.3568 19.196C29.8554 18.932 30.2441 18.5287 30.5228 17.986C30.8161 17.4433 30.9628 16.7613 30.9628 15.94V15.324L28.4108 15.698C27.3694 15.8447 26.5848 16.094 26.0568 16.446C25.5288 16.7833 25.2648 17.216 25.2648 17.744C25.2648 18.1547 25.3821 18.4993 25.6168 18.778C25.8661 19.042 26.1741 19.24 26.5408 19.372C26.9221 19.504 27.3108 19.57 27.7068 19.57ZM36.7214 21C36.5748 21 36.4501 20.956 36.3474 20.868C36.2594 20.7653 36.2154 20.6407 36.2154 20.494V5.886C36.2154 5.73933 36.2594 5.622 36.3474 5.534C36.4501 5.43133 36.5748 5.38 36.7214 5.38H37.7554C37.9168 5.38 38.0414 5.43133 38.1294 5.534C38.2174 5.622 38.2614 5.73933 38.2614 5.886V20.494C38.2614 20.6407 38.2174 20.7653 38.1294 20.868C38.0414 20.956 37.9168 21 37.7554 21H36.7214ZM42.071 21C41.9244 21 41.7997 20.956 41.697 20.868C41.609 20.7653 41.565 20.6407 41.565 20.494V5.886C41.565 5.73933 41.609 5.622 41.697 5.534C41.7997 5.43133 41.9244 5.38 42.071 5.38H43.105C43.2664 5.38 43.391 5.43133 43.479 5.534C43.567 5.622 43.611 5.73933 43.611 5.886V20.494C43.611 20.6407 43.567 20.7653 43.479 20.868C43.391 20.956 43.2664 21 43.105 21H42.071ZM50.0826 21.22C49.3493 21.22 48.682 21.0733 48.0806 20.78C47.4793 20.4867 46.9953 20.0907 46.6286 19.592C46.262 19.0933 46.0786 18.5287 46.0786 17.898C46.0786 16.886 46.4893 16.0793 47.3106 15.478C48.132 14.8767 49.2026 14.4807 50.5226 14.29L53.8006 13.828V13.19C53.8006 12.486 53.5953 11.936 53.1846 11.54C52.7886 11.144 52.136 10.946 51.2266 10.946C50.5666 10.946 50.0313 11.078 49.6206 11.342C49.2246 11.606 48.946 11.9433 48.7846 12.354C48.6966 12.574 48.5426 12.684 48.3226 12.684H47.3326C47.1713 12.684 47.0466 12.64 46.9586 12.552C46.8853 12.4493 46.8486 12.332 46.8486 12.2C46.8486 11.98 46.9293 11.7087 47.0906 11.386C47.2666 11.0633 47.5306 10.748 47.8826 10.44C48.2346 10.132 48.682 9.87533 49.2246 9.67C49.782 9.45 50.4566 9.34 51.2486 9.34C52.1286 9.34 52.8693 9.45733 53.4706 9.692C54.072 9.912 54.5413 10.2127 54.8786 10.594C55.2306 10.9753 55.48 11.408 55.6266 11.892C55.788 12.376 55.8686 12.8673 55.8686 13.366V20.494C55.8686 20.6407 55.8173 20.7653 55.7146 20.868C55.6266 20.956 55.5093 21 55.3626 21H54.3506C54.1893 21 54.0646 20.956 53.9766 20.868C53.8886 20.7653 53.8446 20.6407 53.8446 20.494V19.548C53.654 19.812 53.3973 20.076 53.0746 20.34C52.752 20.5893 52.3486 20.802 51.8646 20.978C51.3806 21.1393 50.7866 21.22 50.0826 21.22ZM50.5446 19.57C51.146 19.57 51.696 19.4453 52.1946 19.196C52.6933 18.932 53.082 18.5287 53.3606 17.986C53.654 17.4433 53.8006 16.7613 53.8006 15.94V15.324L51.2486 15.698C50.2073 15.8447 49.4226 16.094 48.8946 16.446C48.3666 16.7833 48.1026 17.216 48.1026 17.744C48.1026 18.1547 48.22 18.4993 48.4546 18.778C48.704 19.042 49.012 19.24 49.3786 19.372C49.76 19.504 50.1486 19.57 50.5446 19.57ZM8.90209 47.22C7.62609 47.22 6.55542 47.0293 5.69009 46.648C4.82475 46.252 4.15742 45.746 3.68809 45.13C3.23342 44.4993 2.99142 43.832 2.96209 43.128C2.96209 43.0107 3.00609 42.908 3.09409 42.82C3.19675 42.7173 3.31409 42.666 3.44609 42.666H4.56809C4.74409 42.666 4.87609 42.71 4.96409 42.798C5.05209 42.886 5.11075 42.9887 5.14009 43.106C5.21342 43.458 5.38942 43.81 5.66809 44.162C5.96142 44.4993 6.36475 44.7853 6.87809 45.02C7.40609 45.24 8.08075 45.35 8.90209 45.35C10.1634 45.35 11.0874 45.13 11.6741 44.69C12.2754 44.2353 12.5761 43.634 12.5761 42.886C12.5761 42.3727 12.4148 41.962 12.0921 41.654C11.7841 41.3313 11.3074 41.0453 10.6621 40.796C10.0168 40.5467 9.18075 40.2753 8.15409 39.982C7.08342 39.674 6.19609 39.3367 5.49209 38.97C4.78809 38.6033 4.26009 38.1487 3.90809 37.606C3.57075 37.0633 3.40209 36.374 3.40209 35.538C3.40209 34.746 3.61475 34.042 4.04009 33.426C4.46542 32.7953 5.07409 32.2967 5.86609 31.93C6.67275 31.5633 7.64809 31.38 8.79209 31.38C9.70142 31.38 10.4934 31.5047 11.1681 31.754C11.8574 31.9887 12.4294 32.3113 12.8841 32.722C13.3388 33.118 13.6834 33.5507 13.9181 34.02C14.1528 34.4747 14.2774 34.922 14.2921 35.362C14.2921 35.4647 14.2554 35.5673 14.1821 35.67C14.1088 35.758 13.9914 35.802 13.8301 35.802H12.6641C12.5614 35.802 12.4514 35.7727 12.3341 35.714C12.2314 35.6553 12.1508 35.5453 12.0921 35.384C12.0041 34.7827 11.6668 34.2767 11.0801 33.866C10.4934 33.4553 9.73075 33.25 8.79209 33.25C7.83875 33.25 7.06142 33.4333 6.46009 33.8C5.87342 34.1667 5.58009 34.7387 5.58009 35.516C5.58009 36.0147 5.71942 36.4327 5.99809 36.77C6.27675 37.0927 6.71675 37.3787 7.31809 37.628C7.91942 37.8773 8.70409 38.1413 9.67209 38.42C10.8454 38.7427 11.8061 39.0873 12.5541 39.454C13.3021 39.806 13.8521 40.2533 14.2041 40.796C14.5708 41.324 14.7541 42.006 14.7541 42.842C14.7541 43.766 14.5121 44.558 14.0281 45.218C13.5441 45.8633 12.8621 46.362 11.9821 46.714C11.1168 47.0513 10.0901 47.22 8.90209 47.22ZM21.8176 47C20.9963 47 20.329 46.846 19.8156 46.538C19.3023 46.2153 18.9283 45.768 18.6936 45.196C18.459 44.6093 18.3416 43.92 18.3416 43.128V37.32H16.6256C16.479 37.32 16.3543 37.276 16.2516 37.188C16.1636 37.0853 16.1196 36.9607 16.1196 36.814V36.066C16.1196 35.9193 16.1636 35.802 16.2516 35.714C16.3543 35.6113 16.479 35.56 16.6256 35.56H18.3416V31.886C18.3416 31.7393 18.3856 31.622 18.4736 31.534C18.5763 31.4313 18.701 31.38 18.8476 31.38H19.8816C20.0283 31.38 20.1456 31.4313 20.2336 31.534C20.3363 31.622 20.3876 31.7393 20.3876 31.886V35.56H23.1156C23.2623 35.56 23.3796 35.6113 23.4676 35.714C23.5703 35.802 23.6216 35.9193 23.6216 36.066V36.814C23.6216 36.9607 23.5703 37.0853 23.4676 37.188C23.3796 37.276 23.2623 37.32 23.1156 37.32H20.3876V42.974C20.3876 43.6633 20.505 44.206 20.7396 44.602C20.9743 44.998 21.3923 45.196 21.9936 45.196H23.3356C23.4823 45.196 23.5996 45.2473 23.6876 45.35C23.7903 45.438 23.8416 45.5553 23.8416 45.702V46.494C23.8416 46.6407 23.7903 46.7653 23.6876 46.868C23.5996 46.956 23.4823 47 23.3356 47H21.8176ZM30.6314 47.22C29.5167 47.22 28.5854 47.0073 27.8374 46.582C27.0894 46.1567 26.5174 45.57 26.1214 44.822C25.7254 44.0593 25.5054 43.194 25.4614 42.226C25.4467 41.9767 25.4394 41.6613 25.4394 41.28C25.4394 40.884 25.4467 40.5687 25.4614 40.334C25.5054 39.3513 25.7254 38.486 26.1214 37.738C26.532 36.99 27.1114 36.4033 27.8594 35.978C28.6074 35.5527 29.5314 35.34 30.6314 35.34C31.7314 35.34 32.6554 35.5527 33.4034 35.978C34.1514 36.4033 34.7234 36.99 35.1194 37.738C35.5301 38.486 35.7574 39.3513 35.8014 40.334C35.816 40.5687 35.8234 40.884 35.8234 41.28C35.8234 41.6613 35.816 41.9767 35.8014 42.226C35.7574 43.194 35.5374 44.0593 35.1414 44.822C34.7454 45.57 34.1734 46.1567 33.4254 46.582C32.6774 47.0073 31.746 47.22 30.6314 47.22ZM30.6314 45.526C31.5407 45.526 32.2667 45.24 32.8094 44.668C33.352 44.0813 33.6454 43.2307 33.6894 42.116C33.704 41.896 33.7114 41.6173 33.7114 41.28C33.7114 40.9427 33.704 40.664 33.6894 40.444C33.6454 39.3293 33.352 38.486 32.8094 37.914C32.2667 37.3273 31.5407 37.034 30.6314 37.034C29.722 37.034 28.9887 37.3273 28.4314 37.914C27.8887 38.486 27.6027 39.3293 27.5734 40.444C27.5587 40.664 27.5514 40.9427 27.5514 41.28C27.5514 41.6173 27.5587 41.896 27.5734 42.116C27.6027 43.2307 27.8887 44.0813 28.4314 44.668C28.9887 45.24 29.722 45.526 30.6314 45.526ZM39.0842 47C38.9375 47 38.8129 46.956 38.7102 46.868C38.6222 46.7653 38.5782 46.6407 38.5782 46.494V36.088C38.5782 35.9413 38.6222 35.8167 38.7102 35.714C38.8129 35.6113 38.9375 35.56 39.0842 35.56H40.0962C40.2429 35.56 40.3675 35.6113 40.4702 35.714C40.5729 35.8167 40.6242 35.9413 40.6242 36.088V37.056C40.9175 36.5573 41.3209 36.1833 41.8342 35.934C42.3475 35.6847 42.9635 35.56 43.6822 35.56H44.5622C44.7089 35.56 44.8262 35.6113 44.9142 35.714C45.0022 35.802 45.0462 35.9193 45.0462 36.066V36.968C45.0462 37.1147 45.0022 37.232 44.9142 37.32C44.8262 37.408 44.7089 37.452 44.5622 37.452H43.2422C42.4502 37.452 41.8269 37.6867 41.3722 38.156C40.9175 38.6107 40.6902 39.234 40.6902 40.026V46.494C40.6902 46.6407 40.6389 46.7653 40.5362 46.868C40.4335 46.956 40.3089 47 40.1622 47H39.0842ZM51.2748 47.22C49.7641 47.22 48.5614 46.758 47.6668 45.834C46.7721 44.8953 46.2808 43.6193 46.1928 42.006C46.1781 41.8153 46.1708 41.5733 46.1708 41.28C46.1708 40.972 46.1781 40.7227 46.1928 40.532C46.2514 39.4907 46.4934 38.5813 46.9188 37.804C47.3441 37.012 47.9234 36.4033 48.6568 35.978C49.4048 35.5527 50.2774 35.34 51.2748 35.34C52.3894 35.34 53.3208 35.5747 54.0688 36.044C54.8314 36.5133 55.4108 37.1807 55.8068 38.046C56.2028 38.9113 56.4008 39.9233 56.4008 41.082V41.456C56.4008 41.6173 56.3494 41.742 56.2468 41.83C56.1588 41.918 56.0414 41.962 55.8948 41.962H48.2828C48.2828 41.9767 48.2828 42.006 48.2828 42.05C48.2828 42.094 48.2828 42.1307 48.2828 42.16C48.3121 42.7613 48.4441 43.326 48.6788 43.854C48.9134 44.3673 49.2508 44.7853 49.6908 45.108C50.1308 45.4307 50.6588 45.592 51.2748 45.592C51.8028 45.592 52.2428 45.5113 52.5948 45.35C52.9468 45.1887 53.2328 45.0127 53.4528 44.822C53.6728 44.6167 53.8194 44.4627 53.8928 44.36C54.0248 44.1693 54.1274 44.0593 54.2008 44.03C54.2741 43.986 54.3914 43.964 54.5528 43.964H55.6088C55.7554 43.964 55.8728 44.008 55.9608 44.096C56.0634 44.1693 56.1074 44.2793 56.0928 44.426C56.0781 44.646 55.9608 44.9173 55.7408 45.24C55.5208 45.548 55.2054 45.856 54.7948 46.164C54.3841 46.472 53.8854 46.7287 53.2988 46.934C52.7121 47.1247 52.0374 47.22 51.2748 47.22ZM48.2828 40.444H54.3108V40.378C54.3108 39.718 54.1861 39.1313 53.9368 38.618C53.7021 38.1047 53.3574 37.7013 52.9028 37.408C52.4481 37.1 51.9054 36.946 51.2748 36.946C50.6441 36.946 50.1014 37.1 49.6468 37.408C49.2068 37.7013 48.8694 38.1047 48.6348 38.618C48.4001 39.1313 48.2828 39.718 48.2828 40.378V40.444Z" fill="#333333"/>
<g clip-path="url(#clip0_45_29620)">
<path d="M94.4025 43.2002C91.9825 43.2002 90.0025 45.1802 90.0025 47.6002C90.0025 50.0202 91.9825 52.0002 94.4025 52.0002C96.8225 52.0002 98.8025 50.0202 98.8025 47.6002C98.8025 45.1802 96.8225 43.2002 94.4025 43.2002ZM79.0025 43.2002C76.5825 43.2002 74.6025 45.1802 74.6025 47.6002C74.6025 50.0202 76.5825 52.0002 79.0025 52.0002C81.4225 52.0002 83.4025 50.0202 83.4025 47.6002C83.4025 45.1802 81.4225 43.2002 79.0025 43.2002Z" fill="#62D0B6"/>
<path d="M105.403 16.8L101.003 38.8H74.6033L70.2033 12.4H61.4033V8H73.9433L74.6033 11.74L78.3433 34.4H97.4833L98.3633 30H83.4033V25.6H99.2433L100.123 21.2H83.4033V16.8H105.403Z" fill="#62D0B6"/>
</g>
<defs>
<clipPath id="clip0_45_29620">
<rect width="44" height="44" fill="white" transform="translate(61.4033 8)"/>
</clipPath>
</defs>
</svg>
